<?xml version="1.0" standalone="no"?><!DOCTYPE svg PUBLIC "-//W3C//DTD SVG 1.1//EN" "http://www.w3.org/Graphics/SVG/1.1/DTD/svg11.dtd"><svg t="1712113808710" class="icon" viewBox="0 0 1024 1024" version="1.1" xmlns="http://www.w3.org/2000/svg" p-id="13143" xmlns:xlink="http://www.w3.org/1999/xlink" width="128" height="128"><path d="M552.22 713.13l180.992 180.993 160.91-160.91-20.11-20.11-30.15 30.15a14.222 14.222 0 1 1-20.14-20.081l30.18-30.152-40.22-40.248-30.151 30.15a14.222 14.222 0 0 1-20.139-20.11l30.151-30.15-40.22-40.221-30.151 30.151a14.222 14.222 0 0 1-20.11-20.11l30.15-30.151-20.081-20.11-160.91 160.91zM310.87 471.78l160.91-160.91-20.14-20.14-30.15 30.152a14.222 14.222 0 1 1-20.14-20.082l30.151-30.18-40.163-40.22-30.18 30.151a14.222 14.222 0 0 1-20.11-20.11L371.2 210.29l-40.22-40.25-30.152 30.18a14.222 14.222 0 0 1-20.138-20.11l30.18-30.15-20.11-20.14-160.911 160.91 181.049 181.05zM512 270.649L684.686 97.934a56.889 56.889 0 0 1 80.47 0l160.91 160.91a56.889 56.889 0 0 1 0 80.47L753.35 512l180.992 180.992a56.889 56.889 0 0 1 0 80.47l-160.881 160.88a56.889 56.889 0 0 1-80.469 0L512 753.351 361.756 903.595a56.889 56.889 0 0 1-32.426 16.128l-224.086 31.09a28.444 28.444 0 0 1-32.085-32.057l31.118-224.114a56.889 56.889 0 0 1 16.128-32.398L270.65 512 89.6 330.951a56.889 56.889 0 0 1 0-80.44L250.51 89.6a56.889 56.889 0 0 1 80.441 0L512 270.649zM134.684 889.316l186.852-25.942 564.28-564.31-160.88-160.88-564.339 564.28-25.884 186.852z" p-id="13144" fill="#bfbfbf"></path></svg>