<?xml version="1.0" standalone="no"?><!DOCTYPE svg PUBLIC "-//W3C//DTD SVG 1.1//EN" "http://www.w3.org/Graphics/SVG/1.1/DTD/svg11.dtd"><svg t="1718939429183" class="icon" viewBox="0 0 1024 1024" version="1.1" xmlns="http://www.w3.org/2000/svg" p-id="15725" width="128" height="128" data-spm-anchor-id="a313x.search_index.0.i30.5c493a818DYI0x" xmlns:xlink="http://www.w3.org/1999/xlink"><path d="M881.550222 292.181333a56.888889 56.888889 0 0 1 28.672 49.379556v535.893333a56.888889 56.888889 0 0 1-56.888889 56.888889H170.666667a56.888889 56.888889 0 0 1-56.888889-56.888889v-535.893333a56.888889 56.888889 0 0 1 28.672-49.379556l341.333333-195.015111a56.888889 56.888889 0 0 1 56.433778 0l341.333333 195.015111zM810.666667 357.831111l-284.444445-163.328a28.444444 28.444444 0 0 0-28.330666 0l-284.444445 163.328a28.444444 28.444444 0 0 0-14.279111 24.689778v438.101333a28.444444 28.444444 0 0 0 28.444444 28.444445h568.888889a28.444444 28.444444 0 0 0 28.444445-28.444445V382.464a28.444444 28.444444 0 0 0-14.279111-24.689778z" p-id="15726" fill="#bfbfbf"></path><path d="M284.444444 492.145778a28.444444 28.444444 0 0 1 28.444445-28.444445h398.222222a28.444444 28.444444 0 0 1 28.444445 28.444445v28.444444a28.444444 28.444444 0 0 1-28.444445 28.444445h-398.222222a28.444444 28.444444 0 0 1-28.444445-28.444445v-28.444444z" p-id="15727" fill="#bfbfbf"></path><path d="M299.576889 475.079111L420.295111 354.417778a28.444444 28.444444 0 0 1 40.220445 0l20.081777 20.081778a28.444444 28.444444 0 0 1 0 40.220444l-120.604444 120.718222L299.52 475.022222zM739.555556 677.034667a28.444444 28.444444 0 0 1-28.444445 28.444444h-398.222222a28.444444 28.444444 0 0 1-28.444445-28.444444v-28.444445a28.444444 28.444444 0 0 1 28.444445-28.444444h398.222222a28.444444 28.444444 0 0 1 28.444445 28.444444v28.444445z" p-id="15728" fill="#bfbfbf"></path><path d="M724.423111 694.101333l-120.718222 120.661334a28.444444 28.444444 0 0 1-40.220445 0l-20.081777-20.081778a28.444444 28.444444 0 0 1 0-40.220445l120.604444-120.718222 60.416 60.359111z" p-id="15729" fill="#bfbfbf"></path></svg>