<?xml version="1.0" standalone="no"?><!DOCTYPE svg PUBLIC "-//W3C//DTD SVG 1.1//EN" "http://www.w3.org/Graphics/SVG/1.1/DTD/svg11.dtd"><svg t="1711590493882" class="icon" viewBox="0 0 1024 1024" version="1.1" xmlns="http://www.w3.org/2000/svg" p-id="4287" xmlns:xlink="http://www.w3.org/1999/xlink" width="128" height="128"><path d="M226.4 843.2h-122.1c-22.1 0-40-17.9-40-40V219.6c0-22.1 17.9-40 40-40h122.1c22.1 0 40 17.9 40 40v583.6c0 22.1-17.9 40-40 40z m-122.1-40h122.1V219.6c0 0.1 0 0-0.1 0h-122v583.6z" fill="#bfbfbf" p-id="4288"></path><path d="M165.4 730.2m-36 0a36 36 0 1 0 72 0 36 36 0 1 0-72 0Z" fill="#bfbfbf" p-id="4289"></path><path d="M439.4 843.2H317.3c-22.1 0-40-17.9-40-40V219.6c0-22.1 17.9-40 40-40h122.1c22.1 0 40 17.9 40 40v583.6c0 22.1-17.9 40-40 40z m-122.1-40h122.1V219.6c0 0.1 0 0-0.1 0h-122v583.6z" fill="#bfbfbf" p-id="4290"></path><path d="M378.3 730.2m-36 0a36 36 0 1 0 72 0 36 36 0 1 0-72 0Z" fill="#bfbfbf" p-id="4291"></path><path d="M811.7 844.1c-13.8 0-27.3-7.2-34.7-19.9L485.1 318.8c-11-19.1-4.4-43.6 14.6-54.6l105.7-61.1c19.1-11 43.6-4.4 54.6 14.6L951.8 723c5.4 9.2 6.8 19.9 4.1 30.2-2.7 10.4-9.3 19.1-18.6 24.4l-105.7 61.1c-6.3 3.7-13.1 5.4-19.9 5.4zM625.4 237.7l-105.7 61.1 291.9 505.4 105.6-61.1-291.8-505.4z" fill="#bfbfbf" p-id="4292"></path><path d="M827.9 710.4m-36 0a36 36 0 1 0 72 0 36 36 0 1 0-72 0Z" fill="#bfbfbf" p-id="4293"></path></svg>