<?xml version="1.0" standalone="no"?><!DOCTYPE svg PUBLIC "-//W3C//DTD SVG 1.1//EN" "http://www.w3.org/Graphics/SVG/1.1/DTD/svg11.dtd"><svg t="1710215835959" class="icon" viewBox="0 0 1024 1024" version="1.1" xmlns="http://www.w3.org/2000/svg" p-id="4264" width="128" height="128" xmlns:xlink="http://www.w3.org/1999/xlink"><path d="M808.32 469.76l44.352 55.488 32.32-25.152a38.4 38.4 0 1 1 47.296 60.544l-222.4 173.888a160 160 0 1 1-40.064-66.24l122.368-95.744-43.904-54.848a38.4 38.4 0 1 1 59.968-48zM406.016 82.24a246.848 246.848 0 1 1 0 493.696 246.848 246.848 0 0 0-246.848 246.848v82.304H76.928v-82.304A329.152 329.152 0 0 1 260.48 528.256a246.848 246.848 0 0 1 145.6-445.952z m150.848 616.192a83.2 83.2 0 1 0 0 166.4 83.2 83.2 0 0 0 0-166.4zM406.08 164.544a164.544 164.544 0 1 0 0 329.152 164.544 164.544 0 0 0 0-329.152z" p-id="4265" fill="#bfbfbf"></path></svg>