<?xml version="1.0" standalone="no"?><!DOCTYPE svg PUBLIC "-//W3C//DTD SVG 1.1//EN" "http://www.w3.org/Graphics/SVG/1.1/DTD/svg11.dtd"><svg t="1710216068377" class="icon" viewBox="0 0 1024 1024" version="1.1" xmlns="http://www.w3.org/2000/svg" p-id="5140" width="256" height="256" xmlns:xlink="http://www.w3.org/1999/xlink"><path d="M607.744 439.808a304.0512 304.0512 0 0 0-98.4832 66.7648c-11.8784 11.8784-22.5024 24.4736-32.2304 37.8112-0.3328 0-0.7168-0.2048-1.0752-0.2048l-108.6976 170.4192-81.3568-6.4768-0.896 0.896-93.056 145.5616c-8.2688 12.8-27.008 25.3952-41.9328 28.0832l-77.568-1.0752c-7.5776 0.1792-19.968-75.9296-10.2656-19.968l-10.24-58.112c-2.7136-15.3088 2.3296-37.8112 10.9824-50.2272l235.4432-339.5584c-16.2048-31.8464-29.8752-75.9552-34.7392-104.192-23.04-130.816 86.4-231.6032 215.9872-254.6432 129.7664-23.04 253.2608 64.4096 276.1216 195.2512 9.8816 57.0368 4.864 115.712-14.7712 165.376-4.1472 0-8.2688-0.1792-12.416-0.1792a308.2752 308.2752 0 0 0-120.7808 24.448zM113.8944 789.0432l228.7872-322.4576-13.5168-12.5952-225.536 327.3216-1.28 12.5952 11.52-4.864zM456.576 186.8032c-35.6352 51.456 10.624 73.4208 61.3632 109.568 50.944 36.0192 87.296 72.192 122.9312 20.8896a114.5088 114.5088 0 0 0-27.6992-158.3616c-50.7648-36.1728-120.96-23.3984-156.5952 27.904zM725.504 478.3104c136.6016 0 247.296 110.6688 247.296 247.2704C972.8 862.1312 862.1568 972.8 725.504 972.8s-247.296-110.6432-247.296-247.2192a247.2448 247.2448 0 0 1 247.296-247.2704z m142.9248 348.7488l0.2048-10.24c0-27.8528-49.152-55.2192-92.8768-69.632-1.9968-0.5376-14.592-6.2976-6.656-30.208h-0.1792c20.48-21.248 36.1728-55.2704 36.1728-88.7296 0-51.4816-34.3808-78.464-74.1888-78.464-39.936 0-73.984 26.9824-73.984 78.464 0 33.6384 15.488 67.84 36.1984 88.8832 8.0896 21.0176-6.2976 28.9536-9.3696 30.0288-41.5744 14.9504-90.5472 42.4704-90.5472 69.6576v10.24c0 36.8896 71.6288 45.3632 138.0608 45.3632 66.432 0 137.1648-8.448 137.1648-45.3632z" fill="#bfbfbf" p-id="5141"></path></svg>