<?xml version="1.0" standalone="no"?><!DOCTYPE svg PUBLIC "-//W3C//DTD SVG 1.1//EN" "http://www.w3.org/Graphics/SVG/1.1/DTD/svg11.dtd"><svg t="1675925651563" class="icon" viewBox="0 0 1024 1024" version="1.1" xmlns="http://www.w3.org/2000/svg" p-id="9096" xmlns:xlink="http://www.w3.org/1999/xlink" width="128" height="128"><path d="M644.885333 708.138667h75.370667c10.112 0 15.168 5.056 15.168 15.168 0 9.813333-5.056 14.698667-15.168 14.698666h-75.370667v63.872c0 7.658667-1.002667 12.8-3.008 15.402667-1.984 2.602667-6.506667 3.925333-13.546666 3.925333-6.144 0-10.496-1.322667-13.098667-3.925333s-3.925333-7.722667-3.925333-15.402667v-63.872h-74.432c-10.133333 0-15.168-4.885333-15.168-14.698666 0-10.112 4.736-15.168 14.250666-15.168h75.349334v-44.586667h-74.432c-10.133333 0-15.168-4.885333-15.168-14.698667 0-10.112 4.736-15.168 14.250666-15.168h55.146667l-32.874667-53.781333-32.853333-53.781333c-5.525333-10.112-4.437333-17.770667 3.221333-22.976 3.989333-2.752 7.637333-3.84 11.029334-3.2 3.370667 0.597333 6.72 3.669333 10.112 9.194666l74.922666 124.544h8.725334c11.968-20.202667 24.064-40.746667 36.309333-61.589333s24.362667-41.344 36.309333-61.589333c4.288-7.04 8.106667-10.496 11.477334-10.325334a23.466667 23.466667 0 0 1 11.050666 3.904c4.288 2.773333 6.592 5.824 6.890667 9.194667 0.298667 3.370667-1.237333 7.808-4.608 13.333333l-64.341333 107.093334h53.781333c10.112 0 15.168 5.056 15.168 15.168 0 9.813333-5.056 14.698667-15.168 14.698666h-75.370667v44.565334zM874.304 64H405.696A107.136 107.136 0 0 0 298.666667 171.029333V213.333333H149.589333A85.696 85.696 0 0 0 64 298.922667V821.333333a138.816 138.816 0 0 0 138.133333 138.645334L202.112 960h672.192A107.136 107.136 0 0 0 981.333333 852.970667V171.029333A107.136 107.136 0 0 0 874.304 64zM106.666667 821.333333V298.922667C106.666667 275.264 125.930667 256 149.589333 256H298.666667v565.333333c0 12.565333-2.581333 24.512-6.997334 35.541334a165.866667 165.866667 0 0 1-12.864 22.293333C261.248 902.208 233.813333 917.333333 202.666667 917.333333A96.106667 96.106667 0 0 1 106.666667 821.333333z m832 31.637334A64.448 64.448 0 0 1 874.304 917.333333h-570.453333c2.496-3.221333 5.013333-6.634667 7.488-10.133333 8.448-10.688 15.338667-22.613333 20.394666-35.498667 5.76-13.141333 9.6-26.773333 9.6-40.042666V171.029333A64.426667 64.426667 0 0 1 405.696 106.666667h468.629333A64.426667 64.426667 0 0 1 938.666667 171.029333v681.941334zM853.333333 234.666667H426.666667c-11.733333 0-21.333333 9.6-21.333334 21.333333s9.6 21.333333 21.333334 21.333333h426.666666c11.733333 0 21.333333-9.6 21.333334-21.333333s-9.6-21.333333-21.333334-21.333333z m0 128H426.666667c-11.733333 0-21.333333 9.6-21.333334 21.333333s9.6 21.333333 21.333334 21.333333h426.666666c11.733333 0 21.333333-9.6 21.333334-21.333333s-9.6-21.333333-21.333334-21.333333z" fill="#cdcdcd" p-id="9097"></path></svg>