<?xml version="1.0" standalone="no"?><!DOCTYPE svg PUBLIC "-//W3C//DTD SVG 1.1//EN" "http://www.w3.org/Graphics/SVG/1.1/DTD/svg11.dtd"><svg t="1661152369516" class="icon" viewBox="0 0 1024 1024" version="1.1" xmlns="http://www.w3.org/2000/svg" p-id="796" width="128" height="128" xmlns:xlink="http://www.w3.org/1999/xlink"><defs><style type="text/css">@font-face { font-family: feedback-iconfont; src: url("//at.alicdn.com/t/font_1031158_u69w8yhxdu.woff2?t=1630033759944") format("woff2"), url("//at.alicdn.com/t/font_1031158_u69w8yhxdu.woff?t=1630033759944") format("woff"), url("//at.alicdn.com/t/font_1031158_u69w8yhxdu.ttf?t=1630033759944") format("truetype"); }
</style></defs><path d="M721.856 553.6c33.696 0 64.704 15.68 78.752 41.216l2.464 4.896 85.312 192c17.504 39.36-9.664 80.096-55.52 91.552-6.208 1.568-12.64 2.56-19.136 2.944l-6.528 0.192H216.8c-46.56 0-86.4-29.888-86.4-70.4 0-6.656 1.12-13.248 3.36-19.584l1.856-4.704 85.312-192C233.6 571.296 266.336 553.6 302.144 553.6a22.4 22.4 0 0 1 0 44.8c-17.696 0-32.768 7.36-38.816 16.864l-1.44 2.656-85.344 192a14.88 14.88 0 0 0-1.344 6.08c0 11.68 15.2 23.872 36.864 25.44l4.736 0.16h590.4c5.056 0 10.08-0.64 14.816-1.792 19.712-4.928 28.96-17.024 26.24-27.52l-0.8-2.368-85.344-192c-4.8-10.784-20.928-19.52-40.256-19.52a22.4 22.4 0 1 1 0-44.8zM512 139.904c118.4 0 214.4 96 214.4 214.4 0 126.784-121.728 342.4-214.4 342.4-92.672 0-214.4-215.616-214.4-342.4 0-118.4 96-214.4 214.4-214.4z m0 44.8a169.6 169.6 0 0 0-169.6 169.6c0 28.896 8.192 64.384 21.312 100.608l5.92 15.584 6.464 15.552c3.36 7.744 6.912 15.456 10.624 23.104l7.584 15.072c36.352 69.728 84.16 127.68 117.696 127.68s81.344-57.952 117.696-127.68l7.584-15.072c3.712-7.648 7.264-15.36 10.624-23.104l6.464-15.552 5.92-15.584c13.12-36.224 21.312-71.68 21.312-100.608a169.6 169.6 0 0 0-169.6-169.6z m0 51.2a118.4 118.4 0 1 1 0 236.8 118.4 118.4 0 0 1 0-236.8z m0 44.8a73.6 73.6 0 1 0 0 147.2 73.6 73.6 0 0 0 0-147.2z" p-id="797" fill="#bfbfbf"></path></svg>