<?xml version="1.0" standalone="no"?><!DOCTYPE svg PUBLIC "-//W3C//DTD SVG 1.1//EN" "http://www.w3.org/Graphics/SVG/1.1/DTD/svg11.dtd"><svg t="1711432651778" class="icon" viewBox="0 0 1024 1024" version="1.1" xmlns="http://www.w3.org/2000/svg" p-id="15918" xmlns:xlink="http://www.w3.org/1999/xlink" width="128" height="128"><path d="M394.315165 21.138343H51.442282A52.222982 52.222982 0 0 0 0.0073 74.069325v353.427879c0 29.30099 22.999992 53.009982 51.434982 53.009982h342.872883c28.35599 0 51.355982-23.708992 51.355983-53.009982V74.148325a52.300982 52.300982 0 0 0-51.355983-53.009982z m526.95182 543.413814H578.550102a52.222982 52.222982 0 0 0-51.434982 53.009982V970.990018c0 29.30099 23.078992 53.009982 51.434982 53.009982h342.872883c28.35599 0 51.434982-23.708992 51.434982-53.009982V617.562139a52.222982 52.222982 0 0 0-51.434982-53.009982z m77.584974-408.09186L721.828053 5.542348a46.314984 46.314984 0 0 0-63.485978 20.242993l-146.34995 285.766903a49.229983 49.229983 0 0 0 19.692993 65.454977l277.101906 150.759949a46.393984 46.393984 0 0 0 63.485978-20.163993l146.26995-285.687903a49.149983 49.149983 0 0 0-19.690993-65.454977zM394.315165 564.473157H51.442282A52.222982 52.222982 0 0 0 0.0073 617.562139V970.990018c0 29.30099 22.999992 53.009982 51.434982 53.009982h342.872883c28.35599 0 51.355982-23.708992 51.355983-53.009982V617.562139a52.222982 52.222982 0 0 0-51.355983-53.009982z" p-id="15919" fill="#8a8a8a"></path></svg>