<?xml version="1.0" standalone="no"?><!DOCTYPE svg PUBLIC "-//W3C//DTD SVG 1.1//EN" "http://www.w3.org/Graphics/SVG/1.1/DTD/svg11.dtd"><svg t="1692262597434" class="icon" viewBox="0 0 1024 1024" version="1.1" xmlns="http://www.w3.org/2000/svg" p-id="7308" xmlns:xlink="http://www.w3.org/1999/xlink" width="128" height="128"><path d="M448 576v256H192V576h256m64-64H128v384h384V512zM736 224c52.9 0 96 43.1 96 96v96H640v-96c0-52.9 43.1-96 96-96m0-64c-88.4 0-160 71.6-160 160v160h320V320c0-88.4-71.6-160-160-160z" p-id="7309" fill="#bfbfbf"></path><path d="M832 512v320H192V192h320v-64H128v768h768V512h-64z" p-id="7310" fill="#bfbfbf"></path><path d="M736 448c-17.7 0-32 14.3-32 32s14.3 32 32 32 32-14.3 32-32-14.3-32-32-32zM736 128c-17.7 0-32 14.3-32 32s14.3 32 32 32 32-14.3 32-32-14.3-32-32-32zM448 384H192v64h256v-64zM384 256H192v64h192v-64zM640 576h-64v256h64V576zM768 640h-64v192h64V640z" p-id="7311" fill="#bfbfbf"></path></svg>