<?xml version="1.0" standalone="no"?><!DOCTYPE svg PUBLIC "-//W3C//DTD SVG 1.1//EN" "http://www.w3.org/Graphics/SVG/1.1/DTD/svg11.dtd"><svg t="1720662884588" class="icon" viewBox="0 0 1025 1024" version="1.1" xmlns="http://www.w3.org/2000/svg" p-id="5300" xmlns:xlink="http://www.w3.org/1999/xlink" width="128.125" height="128"><path d="M485.767031 9.698584a42.623092 42.623092 0 0 1 49.580469-3.222364l4.687076 3.222364 468.707535 383.974002a42.696327 42.696327 0 0 1-50.019882 69.061126l-4.027955-3.002658-441.903324-362.003336-341.277674 279.320397v561.496981h299.753116a42.696327 42.696327 0 0 1 42.403385 37.716309v4.980018a42.623092 42.623092 0 0 1-37.643074 42.403385h-325.898208a64.447286 64.447286 0 0 1-63.714931-59.540505V446.768361l-15.672408 12.816222a42.696327 42.696327 0 0 1-58.002558-62.616398l3.808249-3.368835z m-15.745643 587.642073h-170.638838a37.71631 37.71631 0 0 0-42.623091 42.696327 37.643074 37.643074 0 0 0 42.623091 42.623091h170.638838A37.71631 37.71631 0 0 0 512.717715 640.036984a37.71631 37.71631 0 0 0-42.696327-42.696327z m-170.638838-170.638837h170.638838A37.71631 37.71631 0 0 1 512.717715 469.324911a37.71631 37.71631 0 0 1-42.696327 42.696327h-170.638838a37.71631 37.71631 0 0 1-42.623091-42.696327 37.643074 37.643074 0 0 1 42.623091-42.696327z m85.319419 341.277674H299.455786a37.643074 37.643074 0 0 0-42.623091 42.623092 37.71631 37.71631 0 0 0 42.623091 42.696327h85.319419a37.71631 37.71631 0 0 0 42.696327-42.696327 37.71631 37.71631 0 0 0-42.696327-42.623092z m448.274816-169.613539a213.335164 213.335164 0 1 1-234.353767 212.383102 38.814843 38.814843 0 1 1 77.55645 0 135.778714 135.778714 0 1 0 156.797317-134.240768v32.44335a21.311546 21.311546 0 0 1-32.296878 18.308888L649.887904 637.180797a21.23831 21.23831 0 0 1 0-36.617776l150.499061-90.299436a21.311546 21.311546 0 0 1 32.296878 18.382124v69.720246z" fill="#bfbfbf" p-id="5301"></path></svg>