<?xml version="1.0" standalone="no"?><!DOCTYPE svg PUBLIC "-//W3C//DTD SVG 1.1//EN" "http://www.w3.org/Graphics/SVG/1.1/DTD/svg11.dtd"><svg t="1702015448728" class="icon" viewBox="0 0 1024 1024" version="1.1" xmlns="http://www.w3.org/2000/svg" p-id="5338" xmlns:xlink="http://www.w3.org/1999/xlink" width="128" height="128"><path d="M728.746667 768a32.426667 32.426667 0 0 0 64.426666 0 32.426667 32.426667 0 0 0-64.426666 0z" fill="#cdcdcd" p-id="5339"></path><path d="M761.173333 804.693333a37.546667 37.546667 0 1 1 37.12-37.12 37.12 37.12 0 0 1-37.12 37.12z m0-64a26.88 26.88 0 1 0 26.453334 26.88 26.88 26.88 0 0 0-26.453334-26.88z" fill="#cdcdcd" p-id="5340"></path><path d="M686.08 768a75.093333 75.093333 0 0 0 46.08 69.12A75.093333 75.093333 0 1 0 686.08 768z m128 0a53.333333 53.333333 0 1 1-15.786667-37.973333 53.333333 53.333333 0 0 1 15.786667 37.973333z" fill="#cdcdcd" p-id="5341"></path><path d="M761.173333 847.786667a77.653333 77.653333 0 0 1-30.72-6.4A79.36 79.36 0 0 1 682.666667 768a80.213333 80.213333 0 1 1 136.533333 56.746667 78.933333 78.933333 0 0 1-58.026667 23.04z m0-149.76A69.546667 69.546667 0 0 0 691.626667 768a68.693333 68.693333 0 0 0 42.666666 64 69.546667 69.546667 0 0 0 90.88-90.88 68.693333 68.693333 0 0 0-64-43.093333z m0 128a58.88 58.88 0 1 1 0-117.76 57.173333 57.173333 0 0 1 42.666667 17.493333 57.6 57.6 0 0 1 17.066667 42.666667 58.88 58.88 0 0 1-59.733334 58.026666z m0-107.093334a48.213333 48.213333 0 1 0 33.706667 14.08 47.36 47.36 0 0 0-33.706667-13.653333z" fill="#cdcdcd" p-id="5342"></path><path d="M760.746667 568.32a198.4 198.4 0 0 1 145.066666 63.573333h-47.786666a17.92 17.92 0 1 0 0 35.84h87.466666a17.92 17.92 0 0 0 18.346667-17.92v-92.16a18.346667 18.346667 0 0 0-36.266667 0v42.666667a233.386667 233.386667 0 0 0-399.36 140.373333 17.066667 17.066667 0 0 0 7.253334 16.64 17.92 17.92 0 0 0 17.92 0 18.773333 18.773333 0 0 0 10.666666-14.933333 197.546667 197.546667 0 0 1 196.693334-177.92z" fill="#cdcdcd" p-id="5343"></path><path d="M546.133333 768a23.04 23.04 0 0 1-23.466666-26.026667 239.36 239.36 0 0 1 399.786666-152.32v-32a23.466667 23.466667 0 1 1 46.506667 0v92.16a23.466667 23.466667 0 0 1-23.466667 23.466667h-87.466666a23.466667 23.466667 0 0 1 0-46.933333h34.986666a192.853333 192.853333 0 0 0-323.84 120.32 22.613333 22.613333 0 0 1-14.506666 21.333333 18.773333 18.773333 0 0 1-8.533334 0z m213.333334-230.4a229.546667 229.546667 0 0 0-227.413334 205.653333 13.226667 13.226667 0 0 0 5.12 11.946667 13.653333 13.653333 0 0 0 12.8 0 12.8 12.8 0 0 0 7.253334-10.666667 203.52 203.52 0 0 1 351.146666-117.76l8.533334 8.96h-58.88a12.8 12.8 0 1 0 0 25.6h87.466666a12.8 12.8 0 0 0 12.8-12.8v-90.88a12.8 12.8 0 1 0-25.173333 0v57.6l-9.386667-8.96a227.413333 227.413333 0 0 0-162.986666-68.693333zM977.493333 768a17.92 17.92 0 0 0-13.226666 3.84 17.493333 17.493333 0 0 0-6.4 12.373333 197.12 197.12 0 0 1-197.12 178.773334 200.533333 200.533333 0 0 1-135.68-54.186667h48.213333a17.92 17.92 0 1 0 0-35.84h-85.333333a17.92 17.92 0 0 0-18.346667 17.92v92.16a18.346667 18.346667 0 0 0 36.266667 0V938.666667a233.813333 233.813333 0 0 0 389.973333-150.613334 17.92 17.92 0 0 0-16.213333-19.626666z" fill="#cdcdcd" p-id="5344"></path><path d="M585.813333 1007.786667a23.466667 23.466667 0 0 1-23.466666-23.466667v-92.16a23.466667 23.466667 0 0 1 23.466666-23.466667h85.333334a23.466667 23.466667 0 0 1 0 46.933334H640a192.426667 192.426667 0 0 0 312.746667-130.56 22.613333 22.613333 0 0 1 8.533333-15.786667 20.906667 20.906667 0 0 1 17.066667-5.546667 25.173333 25.173333 0 0 1 15.786666 8.533334 22.613333 22.613333 0 0 1 5.12 17.066666 239.36 239.36 0 0 1-389.973333 161.706667v33.28a23.466667 23.466667 0 0 1-23.466667 23.466667z m0-128a12.8 12.8 0 0 0-12.8 12.8v92.16a12.8 12.8 0 1 0 25.173334 0v-57.173334l8.96 8.106667a228.693333 228.693333 0 0 0 381.013333-147.2 12.373333 12.373333 0 0 0-2.56-9.386667 14.08 14.08 0 0 0-8.96-4.693333 11.946667 11.946667 0 0 0-8.96 2.986667 13.226667 13.226667 0 0 0-4.693333 8.533333 202.666667 202.666667 0 0 1-341.333334 128l-9.813333-8.96h61.44a12.8 12.8 0 1 0 0-25.6zM848.213333 222.72H76.8c-28.586667 0-51.626667 17.066667-51.626667 38.826667V938.666667c0 21.333333 23.04 38.826667 51.626667 38.826666h369.066667a34.56 34.56 0 0 0 0-68.693333H94.72V290.986667h735.573333v145.066666a31.573333 31.573333 0 0 0 34.56 26.88 32 32 0 0 0 34.986667-26.88v-174.933333c0-21.333333-23.466667-38.4-51.626667-38.4z" fill="#cdcdcd" p-id="5345"></path><path d="M884.48 230.4L749.226667 29.013333a24.746667 24.746667 0 0 0-18.346667-11.52C725.333333 14.08 205.226667 18.346667 197.973333 16.64 164.693333 12.8 61.44 213.333333 38.4 232.533333c-20.48 29.44 36.266667 68.266667 55.466667 38.4L218.88 85.333333h486.826667c21.333333 12.8 120.32 225.28 158.72 190.293334 16.213333-8.533333 33.28-26.453333 20.053333-45.226667zM597.333333 413.013333H244.906667a29.866667 29.866667 0 0 0 0 59.733334H597.333333a29.866667 29.866667 0 0 0 0-59.733334z" fill="#cdcdcd" p-id="5346"></path></svg>