<?xml version="1.0" standalone="no"?><!DOCTYPE svg PUBLIC "-//W3C//DTD SVG 1.1//EN" "http://www.w3.org/Graphics/SVG/1.1/DTD/svg11.dtd"><svg t="1712645033852" class="icon" viewBox="0 0 1024 1024" version="1.1" xmlns="http://www.w3.org/2000/svg" p-id="30524" xmlns:xlink="http://www.w3.org/1999/xlink" width="128" height="128"><path d="M0 0h1024v1024H0V0z" fill="#bfbfbf" fill-opacity=".01" p-id="30525"></path><path d="M85.333333 72.533333h853.333334a34.133333 34.133333 0 0 1 34.133333 34.133334v256a34.133333 34.133333 0 0 1-34.133333 34.133333h-853.333334a34.133333 34.133333 0 0 1-34.133333-34.133333v-256a34.133333 34.133333 0 0 1 34.133333-34.133334z m34.133334 256h785.066666v-187.733333H119.466667v187.733333zM728.746667 693.646222l-71.452445-69.688889-147.740444 147.512889a34.133333 34.133333 0 0 1-47.729778 0.512l-116.053333-111.217778-236.145778 238.535112a34.133333 34.133333 0 0 1-24.120889 10.126222H85.333333a34.133333 34.133333 0 0 1-34.133333-33.962667v-0.170667a34.133333 34.133333 0 0 1 9.898667-24.007111l259.697777-262.428444a34.133333 34.133333 0 0 1 47.900445-0.568889l116.224 111.274667L632.888889 551.822222a34.133333 34.133333 0 0 1 47.957333-0.284444l95.573334 93.184a34.133333 34.133333 0 0 1 10.296888 24.007111v0.455111a34.133333 34.133333 0 0 1-33.678222 34.133333h-0.398222a34.133333 34.133333 0 0 1-23.893333-9.671111z" fill="#bfbfbf" p-id="30526"></path><path d="M938.666667 310.840889a34.133333 34.133333 0 0 1 34.133333 34.133333v554.666667a34.133333 34.133333 0 1 1-68.266667 0v-554.666667a34.133333 34.133333 0 0 1 34.133334-34.133333zM85.333333 310.840889a34.133333 34.133333 0 0 1 34.133334 34.133333v298.666667a34.133333 34.133333 0 0 1-68.266667 0v-298.666667a34.133333 34.133333 0 0 1 34.133333-34.133333z" fill="#bfbfbf" p-id="30527"></path><path d="M243.484444 917.333333a34.133333 34.133333 0 0 1 34.133334-34.133333H938.666667a34.133333 34.133333 0 1 1 0 68.266667H277.617778a34.133333 34.133333 0 0 1-34.133334-34.133334zM328.533333 234.666667a34.133333 34.133333 0 0 1 34.133334-34.133334h448a34.133333 34.133333 0 0 1 0 68.266667H362.666667a34.133333 34.133333 0 0 1-34.133334-34.133333zM213.333333 200.476444h21.333334a34.133333 34.133333 0 0 1 0 68.266667H213.333333a34.133333 34.133333 0 0 1 0-68.266667z" fill="#bfbfbf" p-id="30528"></path></svg>