<?xml version="1.0" standalone="no"?><!DOCTYPE svg PUBLIC "-//W3C//DTD SVG 1.1//EN" "http://www.w3.org/Graphics/SVG/1.1/DTD/svg11.dtd"><svg t="1712644901190" class="icon" viewBox="0 0 1024 1024" version="1.1" xmlns="http://www.w3.org/2000/svg" p-id="27908" xmlns:xlink="http://www.w3.org/1999/xlink" width="128" height="128"><path d="M35.84 547.84l463.36 192c10.24 5.12 20.48 5.12 30.72 0l448-186.88c20.48-7.68 30.72-30.72 20.48-51.2-7.68-20.48-30.72-30.72-51.2-20.48l-432.64 179.2-448-186.88c-20.48-7.68-43.52 0-51.2 20.48-10.24 23.04 0 46.08 20.48 53.76z" fill="#8a8a8a" p-id="27909"></path><path d="M949.76 652.8l-432.64 179.2-450.56-184.32c-20.48-7.68-43.52 0-51.2 20.48-7.68 20.48 0 43.52 20.48 51.2l463.36 192c10.24 5.12 20.48 5.12 30.72 0l448-186.88c20.48-7.68 30.72-30.72 20.48-51.2-5.12-17.92-28.16-28.16-48.64-20.48zM430.08 547.84L61.44 376.32c-48.64-23.04-48.64-92.16 0-115.2l368.64-168.96c48.64-23.04 107.52-23.04 156.16 0l378.88 168.96c48.64 23.04 51.2 92.16 0 115.2l-378.88 171.52c-48.64 23.04-107.52 23.04-156.16 0z" fill="#8a8a8a" p-id="27910"></path></svg>