<?xml version="1.0" standalone="no"?><!DOCTYPE svg PUBLIC "-//W3C//DTD SVG 1.1//EN" "http://www.w3.org/Graphics/SVG/1.1/DTD/svg11.dtd"><svg t="1710222729288" class="icon" viewBox="0 0 1024 1024" version="1.1" xmlns="http://www.w3.org/2000/svg" p-id="9551" xmlns:xlink="http://www.w3.org/1999/xlink" width="256" height="256"><path d="M782.6 64.2h-540c-97.8 0-177.7 80-177.7 177.7v539.8c0 97.8 80 177.7 177.7 177.7h540c97.8 0 177.7-80 177.7-177.7V242c0.1-97.8-79.9-177.8-177.7-177.8zM392.2 228.9l65.4 24c-13.8 18.6-30 37.2-48 54.6v163.2h-72V367.5c-19.2 13.2-38.4 25.8-57 36.6-10.8-13.8-35.4-39-50.4-51 61.8-28.8 125.4-75 162-124.2z m-9 325.2v124.8H310V488.1h407.4v183.6h-76.8V554.1H383.2z m-94.2 240c-9-15.6-30.6-42-46.8-57.6 209.4-32.4 228.6-81.6 228.6-118.2v-47.4H547v49.8c0 59.4-36.6 130.2-258 173.4z m452.4 0c-47.4-25.8-141.6-62.4-211.8-83.4l37.2-49.8c67.2 18 163.8 51 213.6 76.8l-39 56.4z m-40.8-333.6h-95.4c-75.6 0-94.8-18.6-94.8-81.6-21 4.8-42 9-62.4 12.6-3-15.6-12.6-38.4-20.4-52.2 27.6-5.4 55.2-11.4 82.8-18v-84.6h72v66c55.8-16.2 107.4-35.4 145.8-55.8l43.8 51.6c-52.8 25.2-120 46.8-189.6 64.8v15c0 19.8 4.2 22.2 31.2 22.2h79.8c22.2 0 27-8.4 30-55.2 14.4 10.2 43.2 21 62.4 25.2-7.8 70.8-27.6 90-85.2 90z" p-id="9552" fill="#bfbfbf"></path></svg>