<?xml version="1.0" standalone="no"?><!DOCTYPE svg PUBLIC "-//W3C//DTD SVG 1.1//EN" "http://www.w3.org/Graphics/SVG/1.1/DTD/svg11.dtd"><svg t="1710312931484" class="icon" viewBox="0 0 1024 1024" version="1.1" xmlns="http://www.w3.org/2000/svg" p-id="26534" xmlns:xlink="http://www.w3.org/1999/xlink" width="256" height="256"><path d="M744.727273 504.226909c78.987636 0 142.754909 65.210182 142.754909 145.314909a146.152727 146.152727 0 0 1-45.754182 106.589091 221.463273 221.463273 0 0 1 119.994182 187.904l0.232727 10.146909h-62.091636c0-88.157091-69.585455-159.371636-155.136-159.371636-82.664727 0-150.481455 66.56-154.903273 150.621091l-0.232727 8.750545h-62.091637a221.928727 221.928727 0 0 1 120.226909-198.190545 145.780364 145.780364 0 0 1-45.754181-106.449455c0-80.058182 63.767273-145.314909 142.754909-145.314909z m-217.925818-442.740364l4.561454 2.56 418.909091 279.272728-38.725818 58.088727-38.818909-25.879273V442.181818h-69.818182V328.983273L512 135.074909 221.090909 328.983273V802.909091H395.636364v69.818182H186.181818a34.909091 34.909091 0 0 1-34.583273-30.161455L151.272727 837.818182V375.528727l-38.818909 25.879273-38.725818-58.088727 418.909091-279.272728a34.909091 34.909091 0 0 1 34.164364-2.56zM744.727273 566.318545c-44.404364 0-80.663273 37.096727-80.663273 83.223273 0 46.08 36.305455 83.176727 80.663273 83.176727 44.404364 0 80.663273-37.096727 80.663272-83.176727 0-46.126545-36.305455-83.223273-80.663272-83.223273z m-232.727273 15.499637V651.636364H325.818182v-69.818182h186.181818zM698.181818 372.363636v69.818182H325.818182V372.363636h372.363636z" p-id="26535" fill="#bfbfbf"></path></svg>