<?xml version="1.0" standalone="no"?><!DOCTYPE svg PUBLIC "-//W3C//DTD SVG 1.1//EN" "http://www.w3.org/Graphics/SVG/1.1/DTD/svg11.dtd"><svg t="1652060848057" class="icon" viewBox="0 0 1024 1024" version="1.1" xmlns="http://www.w3.org/2000/svg" p-id="18604" xmlns:xlink="http://www.w3.org/1999/xlink" width="350" height="350"><defs><style type="text/css">@font-face { font-family: feedback-iconfont; src: url("//at.alicdn.com/t/font_1031158_u69w8yhxdu.woff2?t=1630033759944") format("woff2"), url("//at.alicdn.com/t/font_1031158_u69w8yhxdu.woff?t=1630033759944") format("woff"), url("//at.alicdn.com/t/font_1031158_u69w8yhxdu.ttf?t=1630033759944") format("truetype"); }
</style></defs><path d="M957.6448 876.70510934h-576.7168c-43.34114133 0-78.6432-36.58365155-78.6432-81.43940267 0-2.62144 0.58254222-64.66218667 48.46751289-125.71261155 27.49599289-35.06904178 65.011712-62.91456 111.55683556-82.66274133 56.15707022-23.88423111 125.82912-35.94285511 206.97725155-35.94285512 81.14813155 0 150.76192711 12.11687822 206.97725155 35.94285512 46.54512355 19.80643555 84.06084267 47.59369955 111.55683556 82.66274133 47.94322489 61.05042489 48.46751289 123.09117155 48.46751289 125.71261155 0 44.85575111-35.30205867 81.43940267-78.6432 81.43940267zM354.7136 795.38221512c0 14.97133511 11.82560711 27.02995911 26.2144 27.02995911h576.7168c14.44704711 0 26.2144-12.11687822 26.2144-27.02995911 0-1.86413511-1.68937245-48.58402133-38.73905778-94.13882311-51.08895289-62.79805155-146.45111467-96.00295822-275.83374222-96.00295822-129.38262755 0-224.74478933 33.20490667-275.83374222 96.00295822-37.04968533 45.613056-38.68080355 92.274688-38.73905778 94.13882311z m314.5728-298.84416c-115.63463111 0-209.7152-97.34280533-209.7152-217.17174045 0-119.77068089 94.08056889-217.17174045 209.7152-217.17174044s209.7152 97.40105955 209.7152 217.17174044c0 119.82893511-94.08056889 217.22999467-209.7152 217.22999467z m0-380.05054578c-86.74053689 0-157.2864 73.10904889-157.2864 162.87880533 0 89.82801067 70.54586311 162.93705955 157.2864 162.93705956s157.2864-73.10904889 157.2864-162.93705956c0-89.76975645-70.54586311-162.87880533-157.2864-162.87880533z m-445.6448 760.2176h-157.2864c-43.34114133 0-78.6432-36.58365155-78.6432-81.43940267 0-2.03889778 0.40777955-50.38990222 34.77777067-97.75058488 19.80643555-27.43773867 46.83639467-49.10830933 80.39082666-64.54567823 40.02065067-18.46658845 89.53673955-27.787264 147.03365689-27.787264 9.37892978 0 18.64135111 0.29127111 27.61250133 0.75730489a26.79694222 26.79694222 0 0 1 24.81629867 28.54456889 26.56392533 26.56392533 0 0 1-27.55424711 25.690112 460.73264355 460.73264355 0 0 0-24.81629866-0.58254222c-204.18104889 0-209.54043733 129.14961067-209.7152 135.84884622 0 14.91308089 11.76735289 27.02995911 26.2144 27.02995911h157.2864c14.44704711 0 26.2144 12.11687822 26.2144 27.14646756a26.68043378 26.68043378 0 0 1-26.2144 27.14646755l-0.11650845-0.05825422zM249.856 550.88924445c-86.74053689 0-157.2864-73.10904889-157.2864-162.87880533 0-89.82801067 70.54586311-162.93705955 157.2864-162.93705956s157.2864 73.10904889 157.2864 162.93705956c0 89.76975645-70.54586311 162.87880533-157.2864 162.87880533z m0-271.46467556c-57.84644267 0-104.8576 48.70052978-104.8576 108.58587023s47.01115733 108.58587022 104.8576 108.58587022 104.8576-48.70052978 104.8576-108.58587022-47.01115733-108.64412445-104.8576-108.64412445z" fill="#bfbfbf" p-id="18605"></path></svg>