<?xml version="1.0" standalone="no"?><!DOCTYPE svg PUBLIC "-//W3C//DTD SVG 1.1//EN" "http://www.w3.org/Graphics/SVG/1.1/DTD/svg11.dtd"><svg t="1710481179445" class="icon" viewBox="0 0 1099 1024" version="1.1" xmlns="http://www.w3.org/2000/svg" p-id="20218" xmlns:xlink="http://www.w3.org/1999/xlink" width="137.375" height="128"><path d="M32.676337 64.928305a32.676337 32.676337 0 0 1 0-64.928305h172.717778c16.97472 0 30.554496 12.73104 32.251969 28.857024L390.418566 780.837132h676.442603a32.676337 32.676337 0 0 1 0 64.928305H364.10775a32.251969 32.251969 0 0 1-31.827601-25.886448L179.083299 64.928305H32.676337z" p-id="20219" fill="#bfbfbf"></path><path d="M453.225031 693.417323a32.676337 32.676337 0 0 1 0-65.352673H916.634894l84.873602-410.363863H363.683382a32.676337 32.676337 0 0 1 0-64.928305h677.291338c2.12184 0 4.24368 0 6.789888 0.848736a32.251969 32.251969 0 0 1 25.462081 38.193121l-97.604642 472.745959a32.676337 32.676337 0 0 1-32.676336 28.857025H453.225031z" p-id="20220" fill="#bfbfbf"></path><path d="M751.131372 412.91007A32.251969 32.251969 0 0 1 815.635309 407.393286a171.020307 171.020307 0 0 1 0.848736 16.125985 168.049731 168.049731 0 0 1-288.570245 118.823041A168.049731 168.049731 0 0 1 648.009946 254.620804a168.049731 168.049731 0 0 1 122.642354 53.046001 32.251969 32.251969 0 0 1-1.273104 45.407377l-99.302114 93.785329a32.251969 32.251969 0 0 1-44.134272-46.680481l71.718193-67.898881a107.365106 107.365106 0 0 0-49.651057-12.73104 103.545794 103.545794 0 0 0-73.415665 177.385827 103.545794 103.545794 0 0 0 177.385827-73.415665 197.331123 197.331123 0 0 0-0.424368-10.184833z" p-id="20221" fill="#bfbfbf"></path><path d="M551.678409 965.437215m-58.562785 0a58.562785 58.562785 0 1 0 117.12557 0 58.562785 58.562785 0 1 0-117.12557 0Z" p-id="20222" fill="#bfbfbf"></path><path d="M864.861998 965.437215m-50.499793 0a50.499793 50.499793 0 1 0 100.999585 0 50.499793 50.499793 0 1 0-100.999585 0Z" p-id="20223" fill="#bfbfbf"></path><path d="M864.861998 965.437215m-58.562785 0a58.562785 58.562785 0 1 0 117.125569 0 58.562785 58.562785 0 1 0-117.125569 0Z" p-id="20224" fill="#bfbfbf"></path></svg>