<?xml version="1.0" standalone="no"?><!DOCTYPE svg PUBLIC "-//W3C//DTD SVG 1.1//EN" "http://www.w3.org/Graphics/SVG/1.1/DTD/svg11.dtd"><svg t="1712739885846" class="icon" viewBox="0 0 1024 1024" version="1.1" xmlns="http://www.w3.org/2000/svg" p-id="27139" xmlns:xlink="http://www.w3.org/1999/xlink" width="128" height="128"><path d="M511.97 960c-5.6 0-11.28-1.47-16.43-4.57L352 869.32l-143.54 86.12a32.004 32.004 0 0 1-32.23 0.41A32.005 32.005 0 0 1 160 928V160c0-52.93 43.07-96 96-96h512c52.93 0 96 43.07 96 96v384c0 17.67-14.33 32-32 32s-32-14.33-32-32V160c0-17.65-14.35-32-32-32H256c-17.65 0-32 14.35-32 32v711.48l111.54-66.92a32.005 32.005 0 0 1 32.93 0l160 96c15.15 9.09 20.07 28.75 10.98 43.9-6.01 10-16.61 15.54-27.48 15.54z" fill="#bfbfbf" p-id="27140"></path><path d="M704 448H320c-17.67 0-32-14.33-32-32s14.33-32 32-32h384c17.67 0 32 14.33 32 32s-14.33 32-32 32zM512 576H320c-17.67 0-32-14.33-32-32s14.33-32 32-32h192c17.67 0 32 14.33 32 32s-14.33 32-32 32zM809.9 960H662.1c-11.43 0-22-6.1-27.71-16l-73.9-128c-5.72-9.9-5.72-22.1 0-32l73.9-128c5.72-9.9 16.28-16 27.71-16h147.8c11.43 0 22 6.1 27.71 16l73.9 128c5.72 9.9 5.72 22.1 0 32l-73.9 128c-5.71 9.9-16.28 16-27.71 16z m-129.33-64h110.85l55.43-96-55.43-96H680.57l-55.43 96 55.43 96z" fill="#bfbfbf" p-id="27141"></path></svg>