<?xml version="1.0" standalone="no"?><!DOCTYPE svg PUBLIC "-//W3C//DTD SVG 1.1//EN" "http://www.w3.org/Graphics/SVG/1.1/DTD/svg11.dtd"><svg t="1684202529471" class="icon" viewBox="0 0 1024 1024" version="1.1" xmlns="http://www.w3.org/2000/svg" p-id="2410" xmlns:xlink="http://www.w3.org/1999/xlink" width="128" height="128"><path d="M904.658767 0H119.39243a119.494825 119.494825 0 0 0-119.290035 119.290035v785.368732a119.494825 119.494825 0 0 0 119.290035 119.290036h263.308435v-0.358383a33.687916 33.687916 0 1 0 0-67.324633H261.106945v-0.40958h-141.714515a51.19744 51.19744 0 0 1-51.19744-51.19744V119.290035a51.19744 51.19744 0 0 1 51.19744-51.19744H904.709965a51.19744 51.19744 0 0 1 51.19744 51.19744v263.462027a34.046298 34.046298 0 0 0 68.041398 0.051198V119.290035a119.39243 119.39243 0 0 0-119.290036-119.290035z" fill="#bfbfbf" p-id="2411"></path><path d="M224.449578 644.422179a34.046298 34.046298 0 0 0 0 68.092595h152.056397a34.046298 34.046298 0 0 0 0-68.092595h-152.056397zM836.258987 338.773461v-155.281836a11.980201 11.980201 0 0 0-11.929003-11.929003h-155.281836a11.980201 11.980201 0 0 0-11.929004 11.929003l59.849808 59.849808-130.451078 146.373481-144.274386-121.696315a34.097495 34.097495 0 0 0-45.975301 1.894305l-198.390081 197.468527a34.046298 34.046298 0 0 0 48.023199 48.227989l176.272786-175.453628 145.81031 122.976251a34.046298 34.046298 0 0 0 47.357632-3.379031l149.906105-168.234788 59.133043 59.184241a11.877806 11.877806 0 0 0 11.877806-11.929004zM873.735513 621.024949h-47.511224a10.341883 10.341883 0 0 0-10.290686 10.290685l-0.051197 382.342483c0 5.631718 4.60777 10.290685 10.290685 10.290686v-0.153593h47.61362a10.239488 10.239488 0 0 0 10.18829-10.18829l0.051198-382.291286a10.290685 10.290685 0 0 0-10.290686-10.290685zM733.864107 737.140743h-47.664817a10.239488 10.239488 0 0 0-10.137093 10.239488v266.226689a10.239488 10.239488 0 0 0 10.085896 10.290685h47.716014a10.290685 10.290685 0 0 0 10.18829-10.290685l0.051198-266.226689a10.239488 10.239488 0 0 0-10.239488-10.239488zM594.043898 870.305285h-47.716014a10.239488 10.239488 0 0 0-10.239488 10.18829v133.113345a10.239488 10.239488 0 0 0 10.239488 10.290685l47.716014 0.051198a10.290685 10.290685 0 0 0 10.18829-10.290686v-133.164542a10.188291 10.188291 0 0 0-10.18829-10.18829zM1013.709315 536.088396h-47.61362a10.239488 10.239488 0 0 0-10.239488 10.239488v467.381431c0 5.631718 4.60777 10.239488 10.239488 10.239488h47.61362a10.239488 10.239488 0 0 0 10.239488-10.239488v-467.381431a10.239488 10.239488 0 0 0-10.239488-10.239488z" fill="#bfbfbf" p-id="2412"></path></svg>