<?xml version="1.0" standalone="no"?><!DOCTYPE svg PUBLIC "-//W3C//DTD SVG 1.1//EN" "http://www.w3.org/Graphics/SVG/1.1/DTD/svg11.dtd"><svg t="1652323401637" class="icon" viewBox="0 0 1097 1024" version="1.1" xmlns="http://www.w3.org/2000/svg" p-id="5515" width="137.125" height="128" xmlns:xlink="http://www.w3.org/1999/xlink"><defs><style type="text/css">@font-face { font-family: feedback-iconfont; src: url("//at.alicdn.com/t/font_1031158_u69w8yhxdu.woff2?t=1630033759944") format("woff2"), url("//at.alicdn.com/t/font_1031158_u69w8yhxdu.woff?t=1630033759944") format("woff"), url("//at.alicdn.com/t/font_1031158_u69w8yhxdu.ttf?t=1630033759944") format("truetype"); }
</style></defs><path d="M572.307809 5.954081c39.789775 7.014591 80.486531 10.776693 119.215795 21.58564 195.41771 54.536285 305.623039 190.131931 345.678587 382.799024 12.813853 61.632156 3.202173 128.088215 1.859118 192.296817-0.16385 7.806748-12.198448 21.300515-19.71491 22.030744-39.10083 3.793066-78.543552 5.86248-117.812103 5.203209-15.738642-0.261902-23.304131-14.025312-22.960949-31.19861 0.697976-34.733644 0.153529-69.491801 0.209006-104.240927 0.052896-33.261573 15.201936-49.063433 49.007956-50.548405 13.253797-0.584442 26.55662-0.096762 39.931692-0.096762-9.028528-171.354966-137.714086-339.234246-365.90698-366.199846C359.994184 49.013117 147.977296 210.48418 125.098918 443.433888c14.109172 0 28.009339-0.202555 41.901764 0.041285 33.348014 0.587022 47.940995 14.974868 47.975829 47.095941 0.038705 35.59547-0.630887 71.207712 0.303188 106.781249 0.397369 15.080661-4.791648 27.141062-18.97436 28.191251-40.014262 2.967364-80.264624 4.572321-120.327912 3.426661-7.392608-0.210296-20.28258-15.586403-20.598669-24.327227-3.963367-109.290607-7.013301-218.764416 41.337965-321.423609 71.781832-152.40641 196.184064-234.384364 357.484826-266.572525 23.87051-4.763265 48.209348-7.184892 72.33015-10.691543l45.77611-0.00129zM541.920708 1018.009795c-123.73135 0.00258-247.461409 0.029674-371.191469-0.018063-39.228556-0.015482-58.120345-23.994366-49.376941-61.925022 6.048263-26.245692 7.542266-54.368564 18.091891-78.591288 36.599213-84.031886 107.325696-128.405594 191.92009-152.116124 27.957732-7.835132 58.349993-9.12529 87.679164-9.513628 88.121688-1.168883 176.345299-2.746747 264.385707 0.156109 117.799201 3.883377 210.579652 53.914429 264.577941 162.047764 13.593109 27.221052 19.189816 59.282778 23.980174 89.820826 4.875509 31.092817-15.258703 49.989767-48.70864 50.049115-127.119306 0.218037-254.238611 0.087731-381.357917 0.090311z m354.196213-74.820156c-5.020006-16.378561-7.534525-29.665902-13.009958-41.592126-29.102103-63.413865-126.492289-116.512914-196.407261-114.257716-94.700206 3.053805-189.649412 3.738879-284.323815 0.531545-73.617728-2.496456-160.689227 42.842289-191.880096 109.200296-6.377253 13.567306-8.46989 29.149839-13.180258 46.118001h698.801388z" p-id="5516" fill="#bfbfbf"></path><path d="M549.468135 193.46441c137.441863 0.305768 255.833247 116.152959 256.710554 251.196418 0.89924 138.712669-117.659864 257.431753-257.523354 257.870407-143.724934 0.451555-259.059933-115.088579-258.275517-258.727072 0.759903-139.240344 116.07297-250.655841 259.088317-250.339753z m0.427042 74.509227c-97.081838-0.557348-183.824347 81.367709-184.999681 172.730275-1.201137 93.371343 89.297022 186.523358 181.07889 187.307775 90.41946 0.774095 185.689916-93.790644 185.697657-184.101731 0.007741-92.265677-85.407195-175.386711-181.776866-175.936319z" p-id="5517" fill="#bfbfbf"></path></svg>