<?xml version="1.0" standalone="no"?><!DOCTYPE svg PUBLIC "-//W3C//DTD SVG 1.1//EN" "http://www.w3.org/Graphics/SVG/1.1/DTD/svg11.dtd"><svg t="1710989790071" class="icon" viewBox="0 0 1068 1024" version="1.1" xmlns="http://www.w3.org/2000/svg" p-id="18082" xmlns:xlink="http://www.w3.org/1999/xlink" width="133.5" height="128"><path d="M157.980177 614.293166h61.874457c19.141019 0 34.676404 15.268301 34.676404 34.142237a34.320292 34.320292 0 0 1-29.95792 33.830638l-4.718484 0.267084h-61.874457c-17.805599 0-33.51904 10.950443-39.661971 27.019996l-1.55799 4.985568-46.250044 189.585116a41.9767 41.9767 0 0 0 36.278908 51.191097l4.941054 0.267084h844.875674c3.294036 0 6.632586-0.400626 9.837593-1.157364a41.75413 41.75413 0 0 0 32.228134-45.493306l-0.89028-4.807511-46.250043-189.62963a42.154756 42.154756 0 0 0-35.922796-31.604938l-5.252652-0.356112h-78.567205a34.40932 34.40932 0 0 1-34.720919-34.097722c0-17.271431 13.087115-31.604938 30.002435-33.830639l4.718484-0.311598h78.567205c49.054425 0 92.054947 31.471396 106.56651 77.009216l2.047644 7.300296 46.294558 189.629629c14.378021 59.025561-22.613111 118.407234-82.61798 132.562685-5.697792 1.33542-11.484611 2.2257-17.315945 2.67084L956.605808 1023.821944H111.730134C50.033733 1023.821944 0 974.589463 0 913.87237c0-5.78682 0.44514-11.529125 1.33542-17.226917l1.78056-8.45766 46.205529-189.629629a111.284994 111.284994 0 0 1 100.957747-83.997914l7.700921-0.267084h61.874457zM534.435055 0c181.39454 0 328.468788 142.934446 328.468788 319.298905 0 23.013737-2.537298 45.760389-7.211268 66.637454-21.055121 115.958964-118.184664 268.998087-291.121544 462.322379a35.878282 35.878282 0 0 1-52.081377 1.11285c-214.958094-219.676578-318.097027-400.31438-306.122761-545.741611C214.824552 133.987133 359.049904 0 534.435055 0z m0 68.418014c-137.993392 0-251.415058 105.498174-257.736046 239.040167l-0.133542 1.201878c-9.793079 115.291254 76.029908 271.713441 260.317858 465.928013 149.121892-170.933751 232.229525-305.366023 249.723526-401.87237 3.917232-17.360459 5.920362-35.2996 5.920362-53.416797 0-138.572074-115.558338-250.88089-258.092158-250.880891zM534.167971 204.764389a164.078595 164.078595 0 0 1 164.345679 163.811511A164.078595 164.078595 0 0 1 534.167971 532.387411a164.078595 164.078595 0 0 1-164.345679-163.811511A164.078595 164.078595 0 0 1 534.167971 204.764389z m0 66.993566A96.951487 96.951487 0 0 0 437.038428 368.5759c0 53.461311 43.490176 96.817945 97.129543 96.817945a96.951487 96.951487 0 0 0 97.129542-96.817945A96.951487 96.951487 0 0 0 534.167971 271.757955z" fill="#bfbfbf" p-id="18083"></path></svg>