<?xml version="1.0" standalone="no"?><!DOCTYPE svg PUBLIC "-//W3C//DTD SVG 1.1//EN" "http://www.w3.org/Graphics/SVG/1.1/DTD/svg11.dtd"><svg t="1718939517100" class="icon" viewBox="0 0 1024 1024" version="1.1" xmlns="http://www.w3.org/2000/svg" p-id="17973" xmlns:xlink="http://www.w3.org/1999/xlink" width="128" height="128"><path d="M68.52266667 325.71733333h83.93386666c2.05653333-84.59093333 33.67253333-154.46186667 100.4032-206.71146666 52.5568-41.18186667 113.39946667-53.87093333 179.3792-48.77653334v102.4c-2.304 0-4.46293333-0.08533333-6.62186666 0-17.57013333 0.768-35.2768 0.39253333-52.64213334 2.6368-27.0592 3.49013333-50.4832 15.91466667-70.85226666 33.87733334-25.73653333 22.7072-41.8816 51.1488-48.96426667 84.608-2.1504 10.17173333-2.7648 20.66773333-4.13866667 31.57333333h75.9296a1139833.42933333 1139833.42933333 0 0 1-128.384 150.05013333c-42.65813333-49.87733333-84.98346667-99.3536-128.04266666-149.6576z m429.184 613.25653334c-8.86613333 6.72426667-19.10613333 9.27573333-30.0032 9.28426666-108.07466667 0.03413333-216.1408 0.1024-324.20693334-0.03413333-24.25173333-0.03413333-41.43786667-13.07306667-47.65866666-35.61813333-1.24586667-4.48853333-1.6896-9.35253333-1.6896-14.0288-0.1024-96.04266667-0.1024-192.09386667-0.06826667-288.14506667 0.01706667-24.26026667 13.01333333-41.8816 35.74613333-48.09386667 4.97493333-1.34826667 10.368-1.69813333 15.54773334-1.70666666 53.35893333-0.1024 106.7264-0.09386667 160.0768-0.09386667 53.52106667 0 107.05066667 0.03413333 160.5888 0 11.9808 0 23.13386667 2.54293333 32.7424 10.20586667 10.93973333 8.7296 16.7936 20.08746667 17.91146666 33.96266666 0.14506667 1.83466667 0.1792 3.712 0.1792 5.5808 0.00853333 96.03413333-0.01706667 192.08533333 0.04266667 288.13653334 0.01706667 16.63146667-5.7856 30.37866667-19.20853333 40.5504z m39.50933333-491.8016c-12.98773333-9.76213333-19.2256-23.04-19.26826667-38.99733334-0.11093333-97.05813333-0.13653333-194.1248 0.04266667-291.19146666 0.03413333-23.38986667 13.83253333-40.84906667 36.23253333-46.65173334 4.67626667-1.21173333 9.71093333-1.49333333 14.58346667-1.5104 107.06773333-0.08533333 214.10986667-0.0512 321.16906667-0.06826666 20.51413333 0 36.74453333 7.79946667 45.73866666 26.8032 3.05493333 6.528 4.7872 14.29333333 4.82133334 21.504 0.3072 97.05813333 0.26453333 194.11626667 0.14506666 291.18293333-0.0256 23.1424-13.4144 40.4736-35.70346666 46.53226667-4.98346667 1.34826667-10.37653333 1.65546667-15.58186667 1.65546666-53.34186667 0.11946667-106.70933333 0.0768-160.06826667 0.0768H568.7552c-11.4432-0.0256-22.1952-2.32106667-31.5392-9.33546666z m368.39253333 244.95786666c-2.44906667 87.9872-36.23253333 159.65866667-107.4944 211.78026667-51.21706667 37.46986667-109.66186667 48.40106667-172.3392 43.63093333v-102.51093333c9.984 0 19.7632 0.36693333 29.53386667-0.08533333 11.12746667-0.5376 22.4512-0.72533333 33.29706667-2.92693334 41.10506667-8.36266667 72.6272-31.16373333 95.21493333-66.2016 16.18773333-25.05386667 23.95306667-52.80426667 24.45653333-83.2512h-75.392c43.392-50.688 85.77706667-100.23253333 128.54613334-150.2208l128.17066666 149.7856h-83.9936z" p-id="17974" fill="#8a8a8a"></path></svg>