<?xml version="1.0" standalone="no"?><!DOCTYPE svg PUBLIC "-//W3C//DTD SVG 1.1//EN" "http://www.w3.org/Graphics/SVG/1.1/DTD/svg11.dtd"><svg t="1712469316518" class="icon" viewBox="0 0 1024 1024" version="1.1" xmlns="http://www.w3.org/2000/svg" p-id="4351" xmlns:xlink="http://www.w3.org/1999/xlink" width="128" height="128"><path d="M512 136.192a6.848 6.848 0 0 1 3.648 1.024l319.168 184.256a7.296 7.296 0 0 1 3.584 6.4v368.512a7.296 7.296 0 0 1-3.584 6.4l-319.168 184a7.04 7.04 0 0 1-7.296 0l-319.168-184.256a7.296 7.296 0 0 1-3.584-6.4V327.744a7.296 7.296 0 0 1 3.584-6.4l319.168-184.128A6.848 6.848 0 0 1 512 136.192m0-71.808a78.72 78.72 0 0 0-39.552 10.624L153.28 259.264a79.04 79.04 0 0 0-39.488 68.48v368.512a79.04 79.04 0 0 0 39.488 68.48l319.168 184.256a78.912 78.912 0 0 0 79.104 0l318.848-184.256a79.04 79.04 0 0 0 39.488-68.48V327.744a79.04 79.04 0 0 0-39.488-68.48L551.552 75.008A78.72 78.72 0 0 0 512 64.384z" fill="#bfbfbf" p-id="4352"></path><path d="M512 948.992a38.848 38.848 0 0 1-38.784-38.784V556.416L227.008 412.8a38.784 38.784 0 0 1 39.04-67.2L550.784 512v398.4a38.848 38.848 0 0 1-38.784 38.592z" fill="#bfbfbf" p-id="4353"></path><path d="M512 572.864a38.784 38.784 0 0 1-19.2-72.256L757.952 345.6a38.784 38.784 0 0 1 39.04 67.072L531.52 567.616A38.4 38.4 0 0 1 512 572.864z" fill="#bfbfbf" p-id="4354"></path></svg>