<?xml version="1.0" standalone="no"?><!DOCTYPE svg PUBLIC "-//W3C//DTD SVG 1.1//EN" "http://www.w3.org/Graphics/SVG/1.1/DTD/svg11.dtd"><svg t="1661152608671" class="icon" viewBox="0 0 1024 1024" version="1.1" xmlns="http://www.w3.org/2000/svg" p-id="2776" xmlns:xlink="http://www.w3.org/1999/xlink" width="128" height="128"><defs><style type="text/css">@font-face { font-family: feedback-iconfont; src: url("//at.alicdn.com/t/font_1031158_u69w8yhxdu.woff2?t=1630033759944") format("woff2"), url("//at.alicdn.com/t/font_1031158_u69w8yhxdu.woff?t=1630033759944") format("woff"), url("//at.alicdn.com/t/font_1031158_u69w8yhxdu.ttf?t=1630033759944") format("truetype"); }
</style></defs><path d="M859.6 841.9H82.2c-9.9 0-17.8-8-17.8-17.8s8-17.8 17.8-17.8h759.6V88.9c0-9.9 8-17.8 17.8-17.8H974c9.9 0 17.8 8 17.8 17.8s-8 17.8-17.8 17.8h-96.6V824c0 9.9-8 17.9-17.8 17.9zM332.9 949.9H190.7c-9.9 0-17.8-8-17.8-17.8s8-17.8 17.8-17.8h142.2c9.9 0 17.8 8 17.8 17.8s-8 17.8-17.8 17.8zM759.6 949.9H617.4c-9.9 0-17.8-8-17.8-17.8s8-17.8 17.8-17.8h142.2c9.9 0 17.8 8 17.8 17.8s-8 17.8-17.8 17.8z" fill="#bfbfbf" p-id="2777"></path><path d="M697.7 689H82.2c-9.9 0-17.8-8-17.8-17.8V88.9c0-9.9 8-17.8 17.8-17.8h615.5c9.9 0 17.8 8 17.8 17.8v582.2c0 9.9-8 17.9-17.8 17.9zM100 653.3h579.8V106.7H100v546.6z" fill="#bfbfbf" p-id="2778"></path><path d="M469.7 581.4h-86.8c-2.2 0-4-1.8-4-4v-89.6c0-2.2 1.8-4 4-4h86.8c2.2 0 4 1.8 4 4v89.6c0 2.2-1.8 4-4 4zM312.1 581.4h-86.8c-2.2 0-4-1.8-4-4v-89.6c0-2.2 1.8-4 4-4h86.8c2.2 0 4 1.8 4 4v89.6c0 2.2-1.8 4-4 4zM627.3 581.4h-86.8c-2.2 0-4-1.8-4-4v-89.6c0-2.2 1.8-4 4-4h86.8c2.2 0 4 1.8 4 4v89.6c0 2.2-1.8 4-4 4zM469.7 432.9h-86.8c-2.2 0-4-1.8-4-4v-89.6c0-2.2 1.8-4 4-4h86.8c2.2 0 4 1.8 4 4v89.6c0 2.2-1.8 4-4 4zM627.3 432.9h-86.8c-2.2 0-4-1.8-4-4v-89.6c0-2.2 1.8-4 4-4h86.8c2.2 0 4 1.8 4 4v89.6c0 2.2-1.8 4-4 4z" fill="#bfbfbf" p-id="2779"></path></svg>