<?xml version="1.0" standalone="no"?><!DOCTYPE svg PUBLIC "-//W3C//DTD SVG 1.1//EN" "http://www.w3.org/Graphics/SVG/1.1/DTD/svg11.dtd"><svg t="1710313254183" class="icon" viewBox="0 0 1024 1024" version="1.1" xmlns="http://www.w3.org/2000/svg" p-id="31967" xmlns:xlink="http://www.w3.org/1999/xlink" width="128" height="128"><path d="M930.56 375.8592L854.016 187.0336c-17.5616-43.3152-59.0848-71.2704-105.7792-71.2704H276.8896a113.8176 113.8176 0 0 0-105.4208 70.3488L93.0816 374.9376c-23.808 57.2928-11.6736 122.0096 30.8736 164.864 7.424 7.4752 15.4112 14.1312 23.9104 19.968V768c0 78.0288 63.488 141.5168 141.5168 141.5168h444.3648c78.0288 0 141.5168-63.488 141.5168-141.5168v-208.384c8.4992-5.888 16.5376-12.5952 23.9616-20.1216 42.0352-42.6496 54.3744-106.8544 31.3344-163.6352zM130.9184 390.656l78.4384-188.7744c11.3664-27.392 37.888-45.1072 67.584-45.1072h471.3472c29.952 0 56.576 17.92 67.84 45.6704l76.544 188.8256c16.8448 41.6256 7.9872 88.4736-22.528 119.4496-23.9616 24.2688-55.9616 37.6832-90.112 37.6832-49.664 0-94.9248-29.2864-115.4048-74.5472a20.47488 20.47488 0 0 0-18.6368-12.032c-8.0384 0-15.36 4.7104-18.688 12.032-20.48 45.312-65.7408 74.5472-115.4048 74.5472-49.9712 0-95.4368-29.5424-115.7632-75.264-3.2768-7.3728-10.5984-12.1856-18.7392-12.1856s-15.4112 4.7616-18.7392 12.1856a126.79168 126.79168 0 0 1-115.7632 75.264c-33.9968 0-65.8944-13.312-89.856-37.4272-30.8736-31.1296-39.5776-78.3872-22.1184-120.32zM834.304 768c0 55.4496-45.1072 100.5568-100.5568 100.5568H289.3824c-55.4496 0-100.5568-45.1072-100.5568-100.5568v-187.5968c17.2032 5.8368 35.3792 8.9088 54.1184 8.9088 53.6064 0 103.2704-25.6512 134.4512-67.584 31.232 41.9328 80.8448 67.584 134.4512 67.584 53.2992 0 102.8096-25.4976 134.0928-67.1232 31.232 41.6256 80.7936 67.1232 134.0928 67.1232 18.7904 0 37.0688-3.1232 54.3232-9.0112V768z" fill="#bfbfbf" p-id="31968"></path><path d="M306.6368 372.7872h409.9072c11.3152 0 20.48-9.1648 20.48-20.48s-9.1648-20.48-20.48-20.48H306.6368c-11.3152 0-20.48 9.1648-20.48 20.48s9.1648 20.48 20.48 20.48z" fill="#bfbfbf" p-id="31969"></path></svg>