<?xml version="1.0" standalone="no"?><!DOCTYPE svg PUBLIC "-//W3C//DTD SVG 1.1//EN" "http://www.w3.org/Graphics/SVG/1.1/DTD/svg11.dtd"><svg t="1711009938154" class="icon" viewBox="0 0 1024 1024" version="1.1" xmlns="http://www.w3.org/2000/svg" p-id="23180" xmlns:xlink="http://www.w3.org/1999/xlink" width="128" height="128"><path d="M956.91 662.65a181.92 181.92 0 0 0-159.76-94.33h-0.05l-134.91-0.7a175.5 175.5 0 0 0-127.8-55h-79.21c-56.2-46.31-102.4-48-143.19-48-3.23 0-40.11-0.11-59.9-0.25v-40.46a32 32 0 0 0-32-32H96.1a32 32 0 0 0-32 32v408a32 32 0 0 0 32 32h124a32 32 0 0 0 32-32v-30.18c63.7 26.19 175.08 62.89 299.08 62.89 79.21 0 279.21-16 404.25-182.25a18.2 18.2 0 0 0 1.48-19.72zM196.1 807.91h-76v-360h76v360z m355.08 0.13c-131 0.2-259-48.13-299.08-67.83V519.78c19.74 0.14 70.46 0.13 72.05 0.13 55.54 0 93 30.13 106.47 43.4A15.93 15.93 0 0 0 442 567.9c29.55-0.41 92.15 0.42 92.15 0.42h0.2c61.76-0.42 101.76 39.58 115.46 87.09H406.39a8 8 0 0 0-8 8v40a8 8 0 0 0 8 8h288c8.84 0 16.37-7.17 16-16-0.77-18.3-4.42-52.06-12.44-72.2l98.86 0.52h0.34c47.68 0.15 78.55 25.66 91.9 39.58a8 8 0 0 1 0.21 10.86C791.1 784.66 634.8 807.91 551.18 808zM512.1 216.62a64 64 0 1 1-64 64 64.07 64.07 0 0 1 64-64m0-56a120 120 0 1 0 120 120 120 120 0 0 0-120-120zM856.1 376.62a32 32 0 1 1-32 32 32 32 0 0 1 32-32m0-56a88 88 0 1 0 88 88 88 88 0 0 0-88-88z" p-id="23181" fill="#bfbfbf"></path></svg>