<?xml version="1.0" standalone="no"?><!DOCTYPE svg PUBLIC "-//W3C//DTD SVG 1.1//EN" "http://www.w3.org/Graphics/SVG/1.1/DTD/svg11.dtd"><svg t="1710221984655" class="icon" viewBox="0 0 1024 1024" version="1.1" xmlns="http://www.w3.org/2000/svg" p-id="7961" xmlns:xlink="http://www.w3.org/1999/xlink" width="256" height="256"><path d="M911.669 808.79L707.475 607.127a210.93 210.93 0 0 0 20.476-90.922c0-117.04-94.53-211.68-211.716-211.68-19.465 0-38.611 2.621-56.547 7.603l90.579 90.289c37.573 37.834 34.691 101.146-6.07 141.836-40.6 40.446-104.202 43.307-141.776 6.097l-90.38-90.948a211.7 211.7 0 0 0-7.63 56.808c0 117.244 94.84 212.32 211.762 212.32 32.197 0 63.405-7.37 90.616-20.64l203.294 202.089c25.969 25.448 69.306 23.93 97.151-4.344 27.818-27.645 29.807-71.411 4.436-96.843z m-54.814 82.234c-19.694 0-36.342-16.09-36.342-36.1 0-19.347 16.649-35.239 36.342-35.239 19.899 0 35.897 15.86 35.897 35.237 0 20.012-16.004 36.103-35.897 36.103z m103.758-468.823h-20.676l-48.54-0.43c-9.679-0.894-18.881-4.348-26.976-9.591-0.546 0-0.745-0.224-1.093-0.66a62.22 62.22 0 0 1-28.191-52.862c0-6.964 1.41-13.27 3.596-19.805a52.679 52.679 0 0 1 10.134-19.347l10.624-10.884 24.068-23.695 14.113-14.37c20.588-26.515 20.588-64.61-0.725-91.361l-41.345-42.413c-27.553-21.104-65.475-21.763-92.333-1.293l-15.032 14.34-33.487 34.38h-0.46c-18.282 14.798-43.5 17.618-64.385 8.466a67.62 67.62 0 0 1-19.893-13.475c-9.903-10.654-16.009-23.495-17.706-37.2V72.403c-4.154-33.716-30.924-60.257-65.386-64.176h-58.928c-33.858 3.715-61.125 30.236-65.935 63.747v68.959c-0.199 1.753-0.863 3.684-0.975 5.238v0.634c-0.547 1.726-0.72 3.484-0.95 5.007-0.665 0-0.665 0.66-0.665 0.66-0.603 1.522-0.95 3.919-1.814 4.982-0.578 1.957-1.665 3.484-2.503 5.237v0.204c-3.603 7.4-8.61 13.705-15.346 19.148-10.88 9.356-25.478 15.003-41.115 15.003-14.686 0-28.39-4.983-38.984-13.705l-10.741-10.86-23.981-23.495-14.57-14.798c-26.775-20.44-64.727-20.44-91.385 1.093l-42.265 41.75c-21.303 26.545-21.651 64.61-1.293 91.82l14.57 14.339 34.149 33.945c0.665 1.093 1.18 1.957 1.844 3.02 0.46 0.204 0.864 1.093 1.753 2.187 0.46 0.634 0.838 1.927 1.528 2.82 0 0.205 1.124 1.298 1.124 1.957 0.608 0.87 1.293 2.392 2.019 3.486 0 0.633 0.23 1.292 0.577 1.957 0.639 0.863 0.864 2.39 1.845 3.715 0 0.43 0.112 1.094 0.348 1.727 0.173 1.957 1.175 3.485 1.175 5.411 0.547 1.957 0.838 3.685 0.838 5.673 2.764 18.717-3.567 38.294-18.166 52.663a61.81 61.81 0 0 1-37.287 18.053H72.802c-33.854 4.814-60.518 31.769-64.32 65.28l-0.2 59.398c3.456 34.156 30.002 60.9 63.748 65.475h20.762l48.11 0.658c1.728 0.205 4.15 0.205 5.76 0.87h1.64c1.522 0.633 2.386 1.098 4.144 1.302a63.67 63.67 0 0 1 44.804 60.921c0 14.57-4.982 28.734-13.792 39.587l-10.568 10.22-24.247 23.726-14.48 14.368c-20.216 27.211-20.216 65.045 0.745 91.592l42.096 42.413c26.863 21.338 64.498 21.533 91.791 0.869l14.339-14.344 34.517-33.715c0-0.435 0.291-0.435 0.72-0.665 1.293-1.293 2.74-1.957 3.716-3.255 1.18-0.2 1.41-0.2 2.274-0.869 0.633-0.43 1.758-1.318 2.62-1.952 1.18-0.67 2.71-0.869 3.92-1.533 0.746-0.435 1.324-0.629 1.553-1.089 1.815-0.204 3.026-0.867 5.417-1.527 2.074-0.638 3.48-1.533 5.008-1.533h0.577c1.64-0.43 3.368-0.66 5.243-1.088h0.43c1.553 0 3.05 0 4.348-0.66 17.624-0.638 35.448 5.437 48.545 18.938 10.853 10.43 16.525 23.93 18.395 37.63l-0.23 14.803v53.956c4.12 34.176 31.212 60.926 65.015 64.406h59.485c34.088-3.485 60.809-30.006 65.494-63.317v-20.434l0.552-34.81V891.72c1.323-12.417 5.76-22.638 12.606-31.758 0.67-1.1 1.303-1.763 1.962-2.397 0.435-0.225 0.956-1.523 1.958-1.952a75.285 75.285 0 0 1 12.698-11.089c1.405-0.199 2.82-1.293 3.715-1.957 1.068-0.634 1.068-0.634 1.528-0.634 0.634-0.204 1.068-0.204 1.18-0.204 1.206-0.864 2.187-0.864 3.597-1.523l-56.93-56.751c-24.67 7.17-50.67 10.654-77.533 10.654-153.928-0.199-277.906-124.846-277.385-278.018 0-154.008 125.103-278.452 278.8-278.018 153.489 0.634 277.41 125.302 277.186 278.913-0.118 26.08-4.063 51.999-11.033 75.469l57.355 56.373c2.938-6.735 7.603-12.612 12.815-18.518 5.902-5.642 13.736-9.99 20.875-12.811 5.385-2.387 10.914-4.145 16.244-4.809h69.388c33.715-4.579 60.38-31.323 64.181-65.045v-60.052c-3.398-33.603-29.832-60.808-63.317-65.387l-0.01-0.005z" p-id="7962" fill="#8a8a8a"></path></svg>