<?xml version="1.0" standalone="no"?><!DOCTYPE svg PUBLIC "-//W3C//DTD SVG 1.1//EN" "http://www.w3.org/Graphics/SVG/1.1/DTD/svg11.dtd"><svg t="1694141372010" class="icon" viewBox="0 0 1024 1024" version="1.1" xmlns="http://www.w3.org/2000/svg" p-id="23312" xmlns:xlink="http://www.w3.org/1999/xlink" width="128" height="128"><path d="M533.333333 85.333333h-469.333333a64 64 0 0 0-64 64v512a64 64 0 0 0 64 64h469.333333a64 64 0 0 0 64-64v-512a64 64 0 0 0-64-64z m-21.333333 85.333334v469.333333h-426.666667v-469.333333h426.666667z" fill="#bfbfbf" p-id="23313"></path><path d="M790.997333 170.666667h-214.997333a64 64 0 0 0-64 64V725.333333h448a64 64 0 0 0 64-64v-260.992a64 64 0 0 0-19.2-45.696l-169.002667-165.674666a64 64 0 0 0-44.8-18.304z m-8.746666 85.333333l156.416 153.344V640h-341.333334v-384h184.917334z" fill="#bfbfbf" p-id="23314"></path><path d="M640 341.333333m42.666667 0l85.333333 0q42.666667 0 42.666667 42.666667l0 0q0 42.666667-42.666667 42.666667l-85.333333 0q-42.666667 0-42.666667-42.666667l0 0q0-42.666667 42.666667-42.666667Z" fill="#bfbfbf" p-id="23315"></path><path d="M234.666667 640a149.333333 149.333333 0 1 0 0 298.666667 149.333333 149.333333 0 0 0 0-298.666667z m0 85.333333a64 64 0 1 1 0 128 64 64 0 0 1 0-128zM746.666667 640a149.333333 149.333333 0 1 0 0 298.666667 149.333333 149.333333 0 0 0 0-298.666667z m0 85.333333a64 64 0 1 1 0 128 64 64 0 0 1 0-128z" fill="#bfbfbf" p-id="23316"></path></svg>