<?xml version="1.0" standalone="no"?><!DOCTYPE svg PUBLIC "-//W3C//DTD SVG 1.1//EN" "http://www.w3.org/Graphics/SVG/1.1/DTD/svg11.dtd"><svg t="1657697509762" class="icon" viewBox="0 0 1024 1024" version="1.1" xmlns="http://www.w3.org/2000/svg" p-id="5920" xmlns:xlink="http://www.w3.org/1999/xlink" width="128" height="128"><defs><style type="text/css">@font-face { font-family: feedback-iconfont; src: url("//at.alicdn.com/t/font_1031158_u69w8yhxdu.woff2?t=1630033759944") format("woff2"), url("//at.alicdn.com/t/font_1031158_u69w8yhxdu.woff?t=1630033759944") format("woff"), url("//at.alicdn.com/t/font_1031158_u69w8yhxdu.ttf?t=1630033759944") format("truetype"); }
</style></defs><path d="M891.733333 793.6h-6.4l6.4-64h2.133334c10.666667-2.133333 19.2-12.8 19.2-25.6V482.133333c0-8.533333-4.266667-17.066667-10.666667-23.466666l-81.066667-76.8c-6.4-6.4-12.8-8.533333-21.333333-8.533334h-147.2v356.266667H704v64h-113.066667l-2.133333-34.133333V309.333333h211.2c25.6 0 49.066667 8.533333 66.133333 25.6l81.066667 76.8c19.2 17.066667 29.866667 42.666667 29.866667 70.4V704c0 42.666667-32 81.066667-74.666667 89.6h-10.666667z" p-id="5921" fill="#409EFF"></path><path d="M650.666667 793.6H409.6v-64h177.066667V256c0-40.533333-34.133333-74.666667-74.666667-74.666667H177.066667c-36.266667 0-66.133333 29.866667-66.133334 66.133334v450.133333c0 17.066667 14.933333 32 32 32h53.333334v64H142.933333c-53.333333 0-96-42.666667-96-96V247.466667c0-72.533333 57.6-130.133333 130.133334-130.133334H512c76.8 0 138.666667 61.866667 138.666667 138.666667v537.6zM810.666667 906.666667c-27.733333 0-53.333333-8.533333-76.8-25.6-27.733333-21.333333-44.8-51.2-49.066667-83.2 0-4.266667-2.133333-12.8-2.133333-19.2 0-21.333333 6.4-40.533333 14.933333-59.733334 12.8-23.466667 32-42.666667 55.466667-55.466666 29.866667-14.933333 66.133333-19.2 98.133333-8.533334 32 10.666667 59.733333 32 74.666667 64v2.133334c8.533333 19.2 12.8 38.4 12.8 57.6v17.066666c-8.533333 57.6-53.333333 102.4-108.8 110.933334H810.666667z m0-194.133334c-10.666667 0-19.2 2.133333-29.866667 6.4-12.8 6.4-21.333333 14.933333-27.733333 27.733334-4.266667 10.666667-6.4 21.333333-6.4 32v8.533333c2.133333 19.2 10.666667 32 25.6 42.666667 12.8 10.666667 29.866667 14.933333 46.933333 12.8 27.733333-4.266667 51.2-25.6 53.333333-53.333334v-10.666666c0-10.666667-2.133333-21.333333-6.4-29.866667-8.533333-14.933333-21.333333-25.6-36.266666-32-6.4-2.133333-12.8-4.266667-19.2-4.266667z" p-id="5922" fill="#409EFF"></path><path d="M300.8 906.666667c-27.733333 0-53.333333-8.533333-76.8-25.6-27.733333-21.333333-44.8-51.2-49.066667-83.2 0-6.4-2.133333-12.8-2.133333-19.2 0-19.2 4.266667-40.533333 14.933333-59.733334 12.8-23.466667 29.866667-42.666667 53.333334-53.333333 61.866667-32 140.8-8.533333 172.8 55.466667 8.533333 19.2 12.8 38.4 12.8 59.733333 0 6.4 0 12.8-2.133334 19.2-8.533333 55.466667-53.333333 100.266667-108.8 106.666667h-14.933333z m2.133333-194.133334c-10.666667 0-19.2 2.133333-29.866666 6.4-12.8 6.4-21.333333 14.933333-27.733334 27.733334-4.266667 8.533333-8.533333 19.2-8.533333 29.866666v8.533334c2.133333 17.066667 10.666667 32 25.6 42.666666 12.8 10.666667 29.866667 14.933333 46.933333 12.8 27.733333-4.266667 51.2-25.6 53.333334-53.333333v-10.666667c0-10.666667-2.133333-21.333333-6.4-29.866666-8.533333-21.333333-32-34.133333-53.333334-34.133334z" p-id="5923" fill="#409EFF"></path></svg>