<?xml version="1.0" standalone="no"?><!DOCTYPE svg PUBLIC "-//W3C//DTD SVG 1.1//EN" "http://www.w3.org/Graphics/SVG/1.1/DTD/svg11.dtd"><svg t="1710731679616" class="icon" viewBox="0 0 1024 1024" version="1.1" xmlns="http://www.w3.org/2000/svg" p-id="6097" xmlns:xlink="http://www.w3.org/1999/xlink" width="128" height="128"><path d="M200.2176 718.050987h193.19808V569.0368c0-12.14976-4.968107-23.195307-12.977493-31.2064-8.011093-8.009387-19.05664-12.977493-31.2064-12.977493h-138.963627c-2.751147 0-5.26336 1.134933-7.089493 2.961066-1.826133 1.826133-2.961067 4.338347-2.961067 7.089494v183.14752z m193.19808 48.165546H152.052053V534.903467c0-16.047787 6.534827-30.60736 17.071787-41.14432 10.53696-10.53696 25.096533-17.071787 41.14432-17.071787h138.963627c25.444693 0 48.5376 10.368 65.261226 27.088213 16.720213 16.723627 27.088213 39.816533 27.088214 65.261227v149.333333h149.014186c25.448107 0 48.541013 10.368 65.261227 27.088214 16.720213 16.723627 27.088213 39.816533 27.088213 65.261226v197.179734H393.41568V766.216533z m48.165547 193.517227h193.19808v-149.014187c0-12.14976-4.968107-23.195307-12.977494-31.2064-8.009387-8.009387-19.054933-12.977493-31.2064-12.977493h-149.014186v193.19808z" p-id="6098" fill="#bfbfbf"></path><path d="M836.51072 500.990293c0-13.300053 10.78272-24.082773 24.082773-24.082773s24.082773 10.78272 24.082774 24.082773v415.397547c0 25.448107-10.368 48.541013-27.088214 65.261227-16.720213 16.720213-39.81312 27.088213-65.261226 27.088213h-547.925334c-25.444693 0-48.5376-10.369707-65.25952-27.091627-16.720213-16.720213-27.08992-39.811413-27.08992-65.257813V534.903467c0-13.300053 10.78272-24.082773 24.082774-24.082774s24.082773 10.78272 24.082773 24.082774v381.484373c0 12.14976 4.969813 23.1936 12.9792 31.202987 8.011093 8.011093 19.05664 12.980907 31.204693 12.980906h547.925334c12.151467 0 23.197013-4.968107 31.2064-12.977493 8.009387-8.009387 12.977493-19.054933 12.977493-31.2064V500.990293zM52.877653 518.017707c-9.403733 9.350827-24.610133 9.309867-33.96096-0.093867-9.350827-9.403733-9.309867-24.610133 0.093867-33.96096L493.144747 10.098347c9.403733-9.350827 24.610133-9.309867 33.96096 0.093866 9.350827 9.403733 9.309867 24.610133-0.093867 33.96096L52.877653 518.017707z" p-id="6099" fill="#bfbfbf"></path><path d="M1001.146027 483.96288c9.403733 9.350827 9.444693 24.557227 0.093866 33.96096-9.350827 9.403733-24.557227 9.444693-33.96096 0.093867L493.144747 44.153173c-9.403733-9.350827-9.444693-24.557227-0.093867-33.96096 9.350827-9.403733 24.557227-9.444693 33.96096-0.093866l474.134187 473.864533z" p-id="6100" fill="#bfbfbf"></path></svg>